<svg xmlns="http://www.w3.org/2000/svg" viewBox="0 0 240 240" width="240" height="240">
  <rect width="240" height="240" rx="56" fill="#0077FF"/>
  <g transform="scale(10)">
    <path fill="#fff" d="M2.04 6.51c.13-.62.5-.86 1.13-.86h2.4c.5 0 .69.22.87.74.9 2.61 2.43 4.9 3.06 4.9.24 0 .35-.11.35-.72V7.04c-.05-1.04-.5-1.12-.5-1.49 0-.18.15-.36.39-.36h3.77c.42 0 .57.22.57.7v4.74c0 .42.18.57.31.57.24 0 .44-.15.88-.59 1.35-1.51 2.31-3.84 2.31-3.84.13-.28.35-.54.85-.54h2.4c.72 0 .88.37.72.88-.3 1.39-3.23 5.52-3.23 5.52-.25.41-.35.59 0 1.05.25.35 1.08 1.06 1.63 1.71.99 1.13 1.75 2.08 1.96 2.74.21.65-.13.98-.79.98h-2.4c-.62 0-.93-.35-1.61-1.09-.29-.32-.71-.78-.99-1.05-.85-.82-1.22-.93-1.43-.93-.29 0-.38.08-.38.5v2.15c0 .36-.12.58-1.07.58-1.58 0-3.33-.96-4.56-2.74C3.49 11.86 2.04 7.6 2.04 6.51z"/>
  </g>
</svg>
