<?xml version="1.0" encoding="utf-8"?>
<!-- Generator: Adobe Illustrator 28.0.0, SVG Export Plug-In . SVG Version: 6.00 Build 0)  -->
<svg version="1.1" id="Слой_1" xmlns="http://www.w3.org/2000/svg" xmlns:xlink="http://www.w3.org/1999/xlink" x="0px" y="0px"
	 viewBox="0 0 1000 417.1" style="enable-background:new 0 0 1000 417.1;" xml:space="preserve">
<style type="text/css">
	.st0{fill:#8654CC;}
</style>
<g>
	<path class="st0" d="M389.2,166.6h44.9v-121h59.3V3.9H389.2L389.2,166.6L389.2,166.6z M296.4,130.4c-19.5,0.9-36-14.2-36.9-33.7
		c0-1,0-2.1,0-3.1h110.8c0,0,0.7-8.4,0.7-17c0-49.2-29.2-76.3-74.7-76.3c-48.1,0-81.6,35.1-81.6,85.1c0,50,33,86.1,81.1,86.1
		c44.7,0,74.7-25.7,75.6-63.7h-43.9C324.7,122.3,311.1,132.2,296.4,130.4L296.4,130.4z M296.4,37.6c15.3-2.1,29.4,8.6,31.5,23.9
		c0,0.2,0.1,0.5,0.1,0.7H262c4.6-15.3,19-25.4,35-24.6H296.4z M136.4,3.9l-30.9,99.7L75.3,3.9H25.9L0,166.6h41.2L56.9,65.4
		l30.4,101.2h35.3l31.5-103.1l15,103.1H211L185.1,3.9H136.4z M575.8,0c-47.9,0-75.1,23.5-73.9,63.5h46.5c0-17,8.9-24.6,27.4-24.6
		c13.3,0,21.7,5.5,21.7,13.9c0,5.4-2.1,7.5-10.2,9.8l-36.9,10.2c-35.9,9.7-51.9,24.6-51.9,49.2c0,29.1,21.2,48.6,52.3,48.6
		c20.4,2,39.7-9.3,48-28v24.6h43V58.5C641.2,19.3,616.3,0,575.8,0z M559.8,132.7c-11.4,0-17-5.5-17-13.6c0-8.1,3.9-12.3,16.3-16.1
		L598,92v2.9c0.4,15.5-9,29.6-23.4,35.2C569.9,132,564.9,132.8,559.8,132.7z M862,210v41.5h46.5v121.1h44.9V251.6h46.5V210H862
		L862,210z M700.3,210h-49.5l-35,60.4H598V210h-44.9v162.7H598v-62.3h17.6l37.5,62.3h50.7l-49.6-83L700.3,210L700.3,210z
		 M299.3,206.1c-47.9,0-75.2,23.5-73.9,63.5h46.5c0-17,8.9-24.6,27.4-24.6c13.3,0,21.7,5.7,21.7,14c0,5.3-2.1,7.4-10.3,9.7
		l-36.9,10.2c-35.8,9.8-51.8,24.6-51.8,49.2c0,29,21.2,48.6,52.3,48.6c20.4,2.2,39.9-9.2,47.9-28.2v24.6h43.1V264.1
		C364.6,225.4,339.8,206.1,299.3,206.1z M283,338.8c-11.2,0-16.9-5.5-16.9-13.8c0-8.2,4-12.3,16.4-15.7l38.8-11v2.7
		c0.5,20.4-15.6,37.3-35.9,37.8C284.6,338.8,283.8,338.8,283,338.8z M474.4,206.1c-19.3-1.2-37,10.3-43.9,28.3v-24.6h-44.9v207.3
		h44.9v-68.4c7.1,17.8,24.8,28.9,43.9,27.7c36.9,0,61.5-28.8,61.5-85.1S511.7,206.1,474.4,206.1L474.4,206.1z M462.1,334.8
		c-20.6,0-32.9-14-32.9-43.5s12.3-43.7,32.6-43.7c20.3,0,30.4,14.1,30.4,43.7s-10.3,43.5-30.4,43.5L462.1,334.8L462.1,334.8z
		 M136.4,210l-30.9,99.6L75.3,210H25.9L0,372.7h41.2l15.6-101.2l30.4,101.2h35.3l31.5-103l15,103H211L185.1,210H136.4L136.4,210z"/>
	<path class="st0" d="M776.8,336.4c-19.6,0.8-36.1-14.4-36.9-34c0-1,0-2,0-2.9h110.8c0,0,0.7-8.4,0.7-17c0-49.2-29.1-76.3-74.7-76.3
		c-48.1,0-81.6,35.1-81.6,85s33,86.1,81.1,86.1c44.7,0,74.7-25.8,75.7-63.7h-44.1C805.2,328.3,791.6,338.3,776.8,336.4L776.8,336.4z
		 M776.8,243.7c15.5-2.1,29.7,8.8,31.7,24.2c0,0.1,0,0.2,0,0.3h-66.2c4.5-15.3,19-25.5,35-24.6C777.3,243.7,776.8,243.7,776.8,243.7
		z"/>
</g>
</svg>
